<?xml version="1.0" encoding="UTF-8" standalone="no"?>
<svg
   xmlns:dc="http://purl.org/dc/elements/1.1/"
   xmlns:cc="http://creativecommons.org/ns#"
   xmlns:rdf="http://www.w3.org/1999/02/22-rdf-syntax-ns#"
   xmlns:svg="http://www.w3.org/2000/svg"
   xmlns="http://www.w3.org/2000/svg"
   xmlns:sodipodi="http://sodipodi.sourceforge.net/DTD/sodipodi-0.dtd"
   xmlns:inkscape="http://www.inkscape.org/namespaces/inkscape"
   width="12"
   height="12"
   viewBox="0 0 12 12"
   class="playfield"
   data-reactid=".2.3.0"
   id="svg3563"
   version="1.1"
   inkscape:version="0.91 r13725"
   sodipodi:docname="ones.svg">
  <metadata
     id="metadata3598">
    <rdf:RDF>
      <cc:Work
         rdf:about="">
        <dc:format>image/svg+xml</dc:format>
        <dc:type
           rdf:resource="http://purl.org/dc/dcmitype/StillImage" />
      </cc:Work>
    </rdf:RDF>
  </metadata>
  <defs
     id="defs3596" />
  <sodipodi:namedview
     pagecolor="#ffffff"
     bordercolor="#666666"
     borderopacity="1"
     objecttolerance="10"
     gridtolerance="10"
     guidetolerance="10"
     inkscape:pageopacity="0"
     inkscape:pageshadow="2"
     inkscape:window-width="1098"
     inkscape:window-height="827"
     id="namedview3594"
     showgrid="false"
     inkscape:zoom="38.242692"
     inkscape:cx="-0.94965731"
     inkscape:cy="7.8576395"
     inkscape:window-x="0"
     inkscape:window-y="0"
     inkscape:window-maximized="0"
     inkscape:current-layer="svg3563" />
  <path
     style="fill:#55d400;stroke:#000000;stroke-width:0.1"
     d="M 1.5,1.5 C 1.494895,1.7760952 1.2761424,2 1,2 0.72385763,2 0.5,1.7761424 0.5,1.5 0.5,1.2642977 0.65499581,1.1885304 0.65386754,1.0130744 0.65267226,0.82719915 0.50765876,0.74009995 0.50765879,0.5 0.50765883,0.22385763 0.7136459,0 1,0 c 0.2863541,-2.1303586e-8 0.4988784,0.22385761 0.4988784,0.5 0,0.24009995 -0.1316808,0.32679614 -0.1347608,0.49346281 C 1.3610376,1.1601295 1.5030817,1.3333333 1.5,1.5 Z"
     id="[0 2]"
     inkscape:connector-curvature="0"
     sodipodi:nodetypes="sssssssss" />
  <path
     style="fill:#338000;stroke:#000000;stroke-width:0.1"
     d="M 0.5,2.5 C 0.5,2.2238576 0.72385763,2 1,2 1.2761424,2 1.4987882,2.2238602 1.5,2.5 1.50108,2.7461013 1.3698504,2.7923431 1.3714085,3 1.3730401,3.2174281 1.5063498,3.2523041 1.50654,3.5 1.5067079,3.7186045 1.3721496,3.8368666 1.3714085,4 1.3706674,4.1631335 1.5035838,4.2074362 1.50327,4.5 1.5029661,4.7833191 1.3720898,4.796083 1.3714085,5 1.3707273,5.2039171 1.5005306,5.184017 1.5,5.5 1.4995363,5.7761421 1.2761424,6 1,6 0.72385763,6 0.49946897,5.7761419 0.5,5.5 0.50054483,5.2166814 0.65332275,5.1631337 0.65386754,5 0.65441232,4.8368664 0.4974455,4.7462355 0.503269,4.5 0.5097532,4.2258284 0.65312675,4.1631335 0.65386754,4 0.65460834,3.8368666 0.50669411,3.7555844 0.506538,3.5 0.50637542,3.2338141 0.65543837,3.1877023 0.65386754,3 0.6522967,2.8122977 0.5,2.7195461 0.5,2.5 Z"
     id="[0 3]"
     inkscape:connector-curvature="0"
     sodipodi:nodetypes="sssssssssssssssss" />
  <circle
     cx="1"
     cy="6.5"
     r="0.5"
     id="[0 7]"
     fill="rgba(100,200,100,0.7)"
     data-reactid=".2.3.0.0.0.6"
     style="stroke:#000000;stroke-width:0.1;fill:#aad400" />
  <circle
     cx="1"
     cy="7.5"
     r="0.5"
     id="[0 8]"
     fill="rgba(100,200,100,0.7)"
     data-reactid=".2.3.0.0.0.7"
     style="stroke:#000000;stroke-width:0.1;fill:#aad400" />
  <circle
     cx="1"
     cy="8.5"
     r="0.5"
     id="[0 9]"
     fill="rgba(100,200,100,0.7)"
     data-reactid=".2.3.0.0.0.8"
     style="stroke:#000000;stroke-width:0.1;fill:#aad400" />
  <circle
     cx="1"
     cy="9.5"
     r="0.5"
     id="[0 10]"
     fill="rgba(100,200,100,0.7)"
     data-reactid=".2.3.0.0.0.9"
     style="stroke:#000000;stroke-width:0.1;fill:#aad400" />
  <circle
     cx="1"
     cy="10.5"
     r="0.5"
     id="[0 11]"
     fill="rgba(100,200,100,0.7)"
     data-reactid=".2.3.0.0.0.a"
     style="stroke:#000000;stroke-width:0.1;fill:#aad400" />
  <circle
     cx="1"
     cy="11.5"
     r="0.5"
     id="[0 12]"
     fill="rgba(100,200,100,0.7)"
     data-reactid=".2.3.0.0.0.b"
     style="stroke:#000000;stroke-width:0.1;fill:#aad400" />
  <circle
     cx="3"
     cy="0.5"
     r="0.5"
     id="[1 1]"
     data-reactid=".2.3.0.0.1.0"
     style="fill:#aad400;stroke:#000000;stroke-width:0.1" />
  <circle
     cx="3"
     cy="1.5"
     r="0.5"
     id="[1 2]"
     data-reactid=".2.3.0.0.1.1"
     style="fill:#aad400;stroke:#000000;stroke-width:0.1" />
  <circle
     cx="3"
     cy="10.5"
     r="0.5"
     id="[1 11]"
     data-reactid=".2.3.0.0.1.a"
     style="fill:#aad400;stroke:#000000;stroke-width:0.1" />
  <path
     style="fill:#2ca05a;stroke:#000000;stroke-width:0.1"
     d="m 3.5003822,6.5007644 c 6.717e-4,0.2461028 -0.1301496,0.2923431 -0.1285915,0.5 0.00163,0.2174281 0.1349413,0.2523041 0.1351315,0.5 1.679e-4,0.2186045 -0.1343904,0.3368666 -0.1351315,0.5 -7.411e-4,0.1631335 0.1321753,0.2074362 0.1318615,0.5 -3.039e-4,0.2833191 -0.1311802,0.296083 -0.1318615,0.5 -6.812e-4,0.2039171 0.1291221,0.184017 0.1285915,0.5 -4.637e-4,0.2761421 -0.2238576,0.4999996 -0.5,0.4999996 -0.2761424,0 -0.500531,-0.2238577 -0.5,-0.4999996 5.448e-4,-0.2833186 0.1533228,-0.3368663 0.1538675,-0.5 5.448e-4,-0.1631336 -0.156422,-0.2537645 -0.1505985,-0.5 0.00648,-0.2741716 0.1498578,-0.3368665 0.1505985,-0.5 7.408e-4,-0.1631334 -0.1471734,-0.2444156 -0.1473295,-0.5 -1.626e-4,-0.2661859 0.1489004,-0.3122977 0.1473295,-0.5 -0.00157,-0.1877023 -0.1647306,-0.2807228 -0.1538675,-0.5 C 2.5134566,6.2368499 2.6311261,6.1671763 2.6311261,6.0003822 2.6311261,5.8335881 2.4998206,5.7920487 2.5003822,5.5 2.500927,5.2166814 2.653705,5.1631337 2.6542497,5 2.6547945,4.8368664 2.4978277,4.7462355 2.5036512,4.5 2.5101354,4.2258284 2.653509,4.1631335 2.6542497,4 2.6549905,3.8368666 2.5070763,3.7555844 2.5069202,3.5 2.5067576,3.2338141 2.6558206,3.1877023 2.6542497,3 2.6526789,2.8122977 2.5003822,2.7195461 2.5003822,2.5 c 0,-0.2761424 0.2238576,-0.5 0.5,-0.5 0.2761424,0 0.4987882,0.2238602 0.5,0.5 C 3.5014622,2.7461013 3.3702326,2.7923431 3.3717907,3 3.3734223,3.2174281 3.506732,3.2523041 3.5069222,3.5 3.5070901,3.7186045 3.3725318,3.8368666 3.3717907,4 3.3710496,4.1631335 3.503966,4.2074362 3.5036522,4.5 3.5033483,4.7833191 3.372472,4.796083 3.3717907,5 3.3711095,5.2039171 3.5007286,5.1840167 3.5003822,5.5 3.5000932,5.7636109 3.3565639,5.8335881 3.3565639,6.0003822 c 0,0.1667941 0.1430631,0.2236984 0.1438183,0.5003822 z"
     id="path3697"
     inkscape:connector-curvature="0"
     sodipodi:nodetypes="sssssssssssssssssssssssssssssssss" />
</svg>
